<svg width="141" height="39" viewBox="0 0 141 39" fill="none" xmlns="http://www.w3.org/2000/svg">
  <path d="M38.1665 19.3373C38.069 15.7183 40.3456 13.9415 38.9323 11.0274C37.8267 8.74745 34.6386 8.28393 33.1487 6.93478C31.8964 5.80099 32.7715 3.13797 30.6865 1.88148C28.3114 0.449955 26.8485 2.34205 23.6741 1.87244C20.8983 1.46187 15.9759 -1.14735 12.627 0.591155C9.77134 2.07352 9.56795 4.07173 6.94864 8.31944C4.71069 11.9616 0.630859 15.215 0.630859 19.214C0.630859 24.286 4.19779 25.8965 5.16013 27.6419C6.6032 30.2594 5.71883 31.6724 7.46174 33.3781C9.32547 35.2019 11.9843 34.1169 13.9266 35.0172C15.6054 35.7955 18.3544 39.1962 22.4355 38.9498C26.2182 38.7214 27.1702 35.6163 30.2921 33.5132C32.528 32.0071 37.2323 32.2676 38.951 28.7858C40.7124 25.2185 38.2558 22.6489 38.1665 19.3373ZM20.5034 34.0169C13.8028 34.0169 8.12634 29.6193 6.19621 23.5545C5.73879 22.1169 5.49001 20.5867 5.49001 18.998C5.49001 18.7381 5.49652 18.4798 5.50955 18.2233C5.76085 13.2227 8.46 8.8733 12.4283 6.3372C13.1561 5.87158 13.9266 5.46669 14.7326 5.13008C16.5091 4.38774 18.4582 3.97676 20.5037 3.97676C28.8047 3.97676 35.5266 10.6975 35.5266 18.998C35.5261 27.2892 28.8043 34.0169 20.5034 34.0169Z" fill="#CD4131"></path>
  <path d="M20.76 5.10288C15.4838 5.08397 9.84381 7.7951 7.55838 14.3648C7.57855 14.3537 8.103 14.0074 8.44843 13.9189C9.53851 11.3576 12.9214 5.69373 20.7148 5.71916C27.9359 5.74374 33.8355 11.5524 33.7544 19.1504C33.7496 19.5185 33.7101 19.6938 33.5884 19.3843C33.3934 18.8779 33.1339 18.5638 32.8009 18.1753C33.1089 16.6826 32.5273 15.3292 30.6226 15.3026C29.762 15.2904 29.6645 14.9834 29.5943 14.9008C29.5166 14.8138 29.4191 14.792 29.3302 14.8426C29.1774 14.9265 28.7299 14.7888 28.9322 15.058C29.1138 15.292 29.4521 15.7892 29.5704 16.3204C29.7605 17.1738 30.0311 18.868 32.2155 18.601C32.5769 18.5568 33.7136 19.3843 33.1062 23.0512C33.0213 23.545 32.7696 23.3193 32.6713 23.1811C32.5963 23.0756 32.2038 22.3375 32.2624 22.1206C32.8684 21.3329 32.1563 19.6362 30.5657 20.0756C30.2652 20.0793 29.8391 19.7539 29.7931 19.6665C29.7467 19.586 29.4447 19.6059 29.384 19.8028C29.4498 20.0995 30.0202 20.4542 30.0051 20.8633C29.779 21.8515 30.6705 22.7804 31.6035 22.5684C31.7119 22.5356 32.899 23.8087 31.6766 25.7321C31.955 24.3373 31.3992 24.0323 30.9996 23.9482C30.4573 23.8343 29.8109 24.3193 29.9942 25.0469C30.1669 25.7413 30.8872 25.6651 31.0622 25.5917C31.0847 25.7413 31.0441 27.0025 30.1108 28.0039C28.6244 29.5905 24.8327 32.2438 21.2958 32.1432C21.9988 31.7855 22.4136 31.4052 22.5039 31.296C22.8317 31.4143 24.1622 31.3119 24.3315 29.6886C24.4538 28.4993 25.1476 28.4342 24.7406 27.948C24.6089 27.7906 24.3383 28.1467 24.2496 28.2478C23.4633 29.1425 21.5416 28.7052 22.0039 30.798C20.4475 32.1898 19.2789 31.9383 19.0396 31.8992C21.6517 30.9587 21.1023 29.7712 20.6072 29.4791C19.9157 29.0711 19.2419 29.4846 19.1026 30.0441C18.978 30.5385 19.385 30.9972 19.7336 31.0384C19.5205 31.2634 18.4903 31.8259 16.2797 31.3271C14.6618 30.9659 13.5805 30.1128 13.291 29.9145C12.9884 29.6863 10.6208 27.8257 10.6208 25.9338C10.6208 25.7323 10.8566 25.7691 10.9112 25.8447C10.9671 25.9178 12.5928 26.5896 13.7131 25.3944C14.4693 24.5876 14.6914 22.8878 13.2752 21.696C12.7035 21.2148 12.536 20.745 12.5463 20.4042C12.5463 20.3972 12.5486 20.3918 12.5488 20.3848C12.5488 19.7095 12.938 19.4347 13.4252 19.4347C13.9131 19.4347 14.3088 19.8303 14.3088 20.318C14.3088 20.4779 14.7475 20.8061 14.7418 19.9066C14.7349 18.7825 13.317 17.6025 11.3424 18.4007C9.71249 19.0664 8.80941 20.3155 8.75562 21.9353C8.74763 22.2049 8.67409 22.3786 8.50663 22.4709C7.30729 23.1306 7.05998 24.4844 7.73992 25.5298C8.38855 26.5272 9.88037 26.2717 9.92723 26.2269C10.0237 27.1123 10.6204 28.705 12.5205 30.1687C12.8567 30.4305 15.671 32.8109 20.6217 32.8353C26.3024 32.8636 34.3972 28.547 34.4276 19.1195C34.4577 10.8227 28.1027 5.13083 20.76 5.10288Z" fill="#CD4131"></path>
  <path d="M7.37972 22.8402C7.51798 22.6387 7.73208 22.4311 7.98275 22.3216C7.73902 21.2122 7.90417 19.9587 8.43387 18.7093C8.9745 17.4335 9.89628 16.1621 11.1545 15.0525C11.5016 14.7463 11.1563 15.0258 11.5539 14.7476C12.6864 13.9527 13.1466 15.3021 12.4536 15.6166C12.3187 15.6786 12.021 16.1083 12.5767 16.0156C12.9757 15.949 13.2577 15.6511 13.4094 15.3431C13.5708 15.0155 13.4693 14.3629 13.2062 14.0641C11.9834 12.6744 10.672 14.1717 9.50505 14.3494C9.50147 14.35 9.49853 14.35 9.49496 14.3502C9.38402 14.3538 8.07731 14.4074 7.51104 15.2941C6.86325 16.3085 7.19902 17.0086 7.19377 17.0565C6.96537 17.1948 6.75441 17.4604 6.77038 17.8054C6.80841 18.6284 7.63018 18.7215 7.7678 18.681C7.80163 18.7036 7.79239 18.7564 7.74196 18.8701C7.64636 19.0953 6.97188 21.3379 7.37972 22.8402Z" fill="#CD4131"></path>
  <path d="M14.5259 17.0403C14.4883 17.1529 14.6937 17.3819 15.111 17.6961C15.559 18.0333 15.8225 18.5628 15.8235 19.1236C15.8261 20.4633 15.5834 23.8134 15.9713 23.9086C18.009 24.4084 20.3543 26.4846 21.1895 27.4309C21.5763 27.8693 24.1971 25.6572 24.354 25.3367C24.9749 24.0697 25.2868 22.1364 26.4048 21.1855C26.6412 20.9844 26.4096 20.5904 26.1213 20.7051C25.3097 21.0281 24.0355 22.8237 22.7172 23.7863C22.0903 24.2441 21.9837 23.7113 21.529 23.3608C20.6737 22.7014 19.7363 22.0696 18.8309 21.7656C18.8316 21.4901 19.0123 20.3292 18.8608 18.809C18.7131 17.3252 18.4645 14.5143 18.4592 14.3691C18.4632 14.2039 18.2968 12.4358 18.7706 11.9305C18.9463 11.743 19.2831 11.5922 19.5697 11.6573C20.3385 11.8323 22.5439 12.5999 23.5447 13.3477C23.5791 13.3735 23.6224 15.0564 23.6397 15.788C23.6432 15.9365 23.8433 16.0626 23.9311 15.9426C24.345 15.3778 25.254 14.189 26.1514 13.7789C26.2575 13.7303 26.3086 13.6106 26.2871 13.4958C26.0919 12.46 26.139 11.3802 26.1577 11.185C26.1814 10.9354 26.2775 10.471 25.9442 10.5857C25.6797 10.6767 25.279 10.8124 25.2557 10.7998C23.7893 10.0027 21.287 9.60658 20.0664 8.98653C19.7653 8.83356 18.5498 10.3239 17.9613 10.9719C16.963 12.0712 14.9253 13.3502 15.3812 14.2634C15.8937 15.2894 15.5094 15.9002 15.2188 16.1931C14.8774 16.5375 14.6074 16.7951 14.5259 17.0403Z" fill="#CD4131"></path>
  <path d="M48.0137 19.4947V19.4583C48.0137 15.8586 50.709 12.9103 54.5439 12.9103C56.8774 12.9103 58.2884 13.7243 59.5003 14.882L58.0713 16.5281C57.0583 15.5874 55.9731 14.9543 54.5258 14.9543C52.1019 14.9543 50.3472 16.9443 50.3472 19.4224V19.4585C50.3472 21.9369 52.1019 23.9628 54.5258 23.9628C56.0815 23.9628 57.0764 23.3297 58.1617 22.3168L59.5907 23.7638C58.2703 25.1386 56.8232 26.007 54.4535 26.007C50.7633 26.0066 48.0137 23.1303 48.0137 19.4947Z" fill="#000000"></path>
  <path d="M66.4643 20.797L61.4355 13.1273H64.0584L67.6039 18.7349L71.1856 13.1273H73.7362L68.7075 20.7426V25.7896H66.4645V20.797H66.4643Z" fill="#000000"></path>
  <path d="M76.2324 13.1273H80.9537C84.9331 13.1273 87.6827 15.8586 87.6827 19.4222V19.4583C87.6827 23.0219 84.9331 25.7896 80.9537 25.7896H76.2324V13.1273ZM80.9537 23.7634C83.6125 23.7634 85.3494 21.9728 85.3494 19.4947V19.4583C85.3494 16.9802 83.6125 15.1533 80.9537 15.1533H78.4573V23.7636H80.9537V23.7634Z" fill="#000000"></path>
  <path d="M91.373 13.1273H100.761V15.1171H93.598V18.4092H99.9473V20.399H93.598V23.8H100.852V25.7898H91.373V13.1273Z" fill="#000000"></path>
  <path d="M104.346 13.1273H109.99C111.581 13.1273 112.83 13.5976 113.644 14.3935C114.313 15.0808 114.693 16.0215 114.693 17.1248V17.1609C114.693 19.2411 113.445 20.4894 111.672 20.996L115.091 25.7893H112.468L109.356 21.3757H106.571V25.7893H104.346V13.1273H104.346ZM109.827 19.4041C111.419 19.4041 112.432 18.5721 112.432 17.2878V17.2515C112.432 15.895 111.455 15.1533 109.809 15.1533H106.571V19.4041H109.827Z" fill="#000000"></path>
  <path d="M118.346 13.1273H127.734V15.1171H120.571V18.4092H126.92V20.399H120.571V23.8H127.824V25.7898H118.346V13.1273Z" fill="#000000"></path>
  <path d="M130.828 23.9445L132.167 22.3527C133.379 23.4018 134.59 23.9989 136.164 23.9989C137.539 23.9989 138.407 23.3657 138.407 22.4071V22.3708C138.407 21.4664 137.901 20.9779 135.549 20.4354C132.854 19.784 131.334 18.9881 131.334 16.6547V16.6186C131.334 14.4479 133.143 12.9464 135.657 12.9464C137.502 12.9464 138.968 13.5072 140.252 14.5382L139.058 16.2204C137.918 15.3703 136.779 14.9181 135.621 14.9181C134.319 14.9181 133.559 15.5876 133.559 16.4196V16.4558C133.559 17.4326 134.138 17.8669 136.562 18.4458C139.239 19.0969 140.632 20.0555 140.632 22.1539V22.1901C140.632 24.5595 138.769 25.9707 136.11 25.9707C134.174 25.9707 132.347 25.3012 130.828 23.9445Z" fill="#000000"></path>
</svg>