<svg width="141" height="39" viewBox="0 0 141 39" fill="none" xmlns="http://www.w3.org/2000/svg">
  <path d="M38.1665 19.3373C38.069 15.7183 40.3456 13.9415 38.9323 11.0274C37.8267 8.74745 34.6386 8.28393 33.1487 6.93478C31.8964 5.80099 32.7715 3.13797 30.6865 1.88148C28.3114 0.449955 26.8485 2.34205 23.6741 1.87244C20.8983 1.46187 15.9759 -1.14735 12.627 0.591155C9.77134 2.07352 9.56795 4.07173 6.94864 8.31944C4.71069 11.9616 0.630859 15.215 0.630859 19.214C0.630859 24.286 4.19779 25.8965 5.16013 27.6419C6.6032 30.2594 5.71883 31.6724 7.46174 33.3781C9.32547 35.2019 11.9843 34.1169 13.9266 35.0172C15.6054 35.7955 18.3544 39.1962 22.4355 38.9498C26.2182 38.7214 27.1702 35.6163 30.2921 33.5132C32.528 32.0071 37.2323 32.2676 38.951 28.7858C40.7124 25.2185 38.2558 22.6489 38.1665 19.3373ZM20.5034 34.0169C13.8028 34.0169 8.12634 29.6193 6.19621 23.5545C5.73879 22.1169 5.49001 20.5867 5.49001 18.998C5.49001 18.7381 5.49652 18.4798 5.50955 18.2233C5.76085 13.2227 8.46 8.8733 12.4283 6.3372C13.1561 5.87158 13.9266 5.46669 14.7326 5.13008C16.5091 4.38774 18.4582 3.97676 20.5037 3.97676C28.8047 3.97676 35.5266 10.6975 35.5266 18.998C35.5261 27.2892 28.8043 34.0169 20.5034 34.0169Z" fill="#CD4131"></path>
</svg>